PathFileType	4	(X/Y/Z)	s08c0102.trc
DataRate	CameraRate	NumFrames	NumMarkers	Units	OrigDataRate	OrigDataStartFrame	OrigNumFrames
200	200	4	50	mm	200	1250	2000
Frame#	Time	racr			lacr			c7			jug			rlel			rdr			llel			ldr			s2			lic			ric			lasi			rasi			rpsi			lpsi			rgt			lgt			rth1			rth2			rth3			rth4			rlfc			rmfc			rsh1			rsh2			rsh3			rsh4			rlmal			rmmal			rcal			rtoe			rmt5			lth1			lth2			lth4			lth3			llfc			lmfc			llmal			lmmal			lcal			lmt5			lsh1			lsh2			lsh3			lsh4			ltoe			SBIKE			LBIKE			RBIKE			
		X1	Y1	Z1	X2	Y2	Z2	X3	Y3	Z3	X4	Y4	Z4	X5	Y5	Z5	X6	Y6	Z6	X7	Y7	Z7	X8	Y8	Z8	X9	Y9	Z9	X10	Y10	Z10	X11	Y11	Z11	X12	Y12	Z12	X13	Y13	Z13	X14	Y14	Z14	X15	Y15	Z15	X16	Y16	Z16	X17	Y17	Z17	X18	Y18	Z18	X19	Y19	Z19	X20	Y20	Z20	X21	Y21	Z21	X22	Y22	Z22	X23	Y23	Z23	X24	Y24	Z24	X25	Y25	Z25	X26	Y26	Z26	X27	Y27	Z27	X28	Y28	Z28	X29	Y29	Z29	X30	Y30	Z30	X31	Y31	Z31	X32	Y32	Z32	X33	Y33	Z33	X34	Y34	Z34	X35	Y35	Z35	X36	Y36	Z36	X37	Y37	Z37	X38	Y38	Z38	X39	Y39	Z39	X40	Y40	Z40	X41	Y41	Z41	X42	Y42	Z42	X43	Y43	Z43	X44	Y44	Z44	X45	Y45	Z45	X46	Y46	Z46	X47	Y47	Z47	X48	Y48	Z48	X49	Y49	Z49	X50	Y50	Z50	
1250	6.2500	542.050822	1355.841583	-61.942791	583.288019	1343.347820	-362.810712	535.784007	1407.370096	-216.864779	511.265550	1250.157615	-206.346584	564.176204	1095.622707	22.039704	795.865186	910.436090	-64.240388	620.314538	1097.879118	-495.240097	805.339484	887.379707	-430.814581	-29.759147	1221.921226	-272.675089	141.647885	1206.423619	-401.311736	110.309414	1237.221951	-93.496798	154.931790	1158.429393	-363.476706	145.071070	1175.466159	-119.305895	-3.068492	1266.735117	-221.543852	4.676443	1264.705192	-316.499995	47.333629	1130.649553	-64.596034	84.302167	1090.794652	-438.362936	179.934691	1011.512955	-52.480443	258.882290	970.909026	-51.593196	306.765156	898.261024	-58.861797	283.157159	997.930471	-59.775743	393.103082	811.179287	-72.861976	377.861303	795.752920	-183.584978	349.553751	685.425992	-42.499182	363.193191	597.573894	-58.022386	331.121332	517.390850	-63.009532	391.477069	598.402683	-87.177161	310.607155	397.873419	-69.399392	323.118439	421.120092	-157.310372	238.132912	349.440675	-112.940131	528.393462	411.298520	-107.055793	450.684360	357.828042	-42.163689	173.413630	993.291060	-434.988527	244.529746	943.254265	-426.151579	269.855109	964.921971	-411.221466	282.705983	862.647701	-426.321461	331.969936	743.012420	-407.631194	323.522944	716.155850	-300.426308	72.062535	414.415488	-405.748637	106.623390	415.289440	-320.716614	10.621947	431.429119	-362.608214	139.313886	258.938689	-420.668100	257.107593	637.625511	-429.539997	222.306815	563.934722	-413.973707	151.795506	507.721301	-412.311456	240.603339	551.409793	-377.617329	223.148347	234.406313	-353.204069	-144.127519	939.332167	-230.379345	11.908708	79.464965	-427.736598	11.992819	79.755635	-29.406596	
1251	6.2550	543.301007	1355.612617	-62.385010	582.850070	1342.058860	-364.279385	536.286866	1406.654608	-218.006212	511.484417	1249.542462	-206.690843	563.769394	1094.326053	21.638458	796.228153	909.656322	-64.444083	620.784051	1096.750230	-495.918936	805.827821	887.400575	-430.774098	-29.664027	1219.527772	-270.541441	141.252767	1205.248128	-399.406394	112.055883	1233.856836	-91.314401	154.908353	1157.451641	-361.467113	146.390013	1173.346803	-117.895039	-2.508580	1263.732262	-218.896388	4.542453	1262.491138	-314.018489	47.604414	1126.182836	-63.086350	85.863013	1090.180052	-437.234189	178.715080	1004.825858	-51.391511	257.099166	963.101167	-50.759828	303.749388	889.885556	-58.284824	281.917111	989.885862	-58.578173	389.672762	801.876390	-72.613553	373.945266	786.363813	-183.151575	347.394972	675.582779	-42.007583	362.258608	587.980172	-57.515169	331.476553	507.267451	-62.714816	390.671898	589.068279	-86.613208	312.616241	387.263298	-68.972331	324.981652	410.868638	-156.763669	240.318385	338.839874	-112.902198	530.706898	400.361575	-106.946660	452.995959	347.043038	-41.975920	175.991455	994.366030	-434.270909	248.382579	946.093506	-425.845811	272.673299	967.623067	-409.374659	288.071414	865.935094	-425.906985	339.276335	747.583368	-406.449456	329.702928	720.666153	-298.244930	72.481719	425.126559	-405.204790	106.465471	425.652690	-320.396922	10.832113	443.209727	-362.529158	137.492416	269.334205	-420.643855	262.655244	643.908915	-428.804861	226.023785	570.978225	-413.323846	154.268245	516.550837	-411.800327	244.057083	558.340563	-376.950005	221.022288	243.807948	-353.201828	-144.144326	939.218590	-230.337372	11.982784	79.503175	-427.677767	12.045009	79.733998	-29.379518	
1252	6.2600	544.466805	1355.465153	-62.960309	582.241784	1341.024513	-366.043897	536.569276	1406.318466	-219.152402	511.463240	1249.292845	-207.322867	563.783103	1093.432605	21.789531	796.442620	908.855927	-64.518391	620.881095	1095.862190	-496.867290	805.968092	887.580823	-430.937366	-29.696858	1217.254400	-267.566356	140.804210	1204.232445	-397.158908	113.959388	1230.580393	-88.939643	154.950946	1156.615245	-359.410739	147.837257	1171.187658	-116.424888	-1.844210	1260.674091	-215.992608	4.571147	1260.268472	-311.109327	48.164939	1121.626684	-61.572585	87.331834	1089.693487	-435.977872	177.897264	998.215570	-50.270582	255.636613	955.294675	-49.665899	300.836166	881.140673	-57.927965	280.896627	981.780948	-56.923083	385.950947	792.405905	-72.557420	369.946073	776.611855	-182.618186	344.932651	665.396394	-41.378172	360.974359	578.035888	-57.075986	331.524885	496.998070	-62.184025	389.578677	579.583233	-85.873842	314.168884	376.554140	-68.622354	326.398827	400.435234	-156.314181	241.911311	328.474066	-112.796015	532.461064	389.127461	-107.033118	454.706492	336.080645	-41.787329	178.499360	995.333888	-433.658408	251.856724	948.609089	-425.028389	275.533078	970.535604	-408.013515	293.387719	869.316309	-425.409235	346.391197	752.619686	-405.633723	336.177405	725.596691	-296.338492	72.996646	436.218419	-405.013911	107.817151	435.934852	-320.711107	11.371364	454.933875	-362.462056	136.285866	279.862140	-420.569449	268.370581	650.378424	-427.887059	229.922168	578.362648	-412.646815	157.028755	525.493970	-411.305737	247.584986	565.108781	-376.219626	219.518024	253.396207	-353.189876	-144.153164	939.236169	-230.178931	12.011741	79.545825	-427.635031	12.062060	79.751271	-29.314909	
1253	6.2650	545.605333	1355.391425	-63.499817	581.478319	1340.225856	-367.998833	536.663873	1406.353615	-220.408668	511.288044	1249.395708	-208.265667	565.165583	1093.153081	22.636057	796.458302	908.147936	-64.669320	620.346221	1095.231294	-498.055989	805.774106	887.855394	-431.327038	-29.590983	1215.068580	-265.140166	140.414135	1203.341967	-394.844843	116.070821	1227.225631	-86.524853	155.032936	1155.852178	-357.123055	149.414938	1168.997375	-114.897034	-0.942250	1257.826531	-213.108386	4.798237	1258.147638	-308.045120	49.021142	1117.079838	-59.926987	88.721067	1089.362723	-434.565284	177.185511	991.392018	-49.279475	254.387109	947.256883	-48.734139	297.511905	872.282377	-57.712753	279.962081	973.224871	-55.284775	381.835042	782.556860	-72.720190	366.578870	767.169125	-181.994350	341.997430	655.015485	-40.761055	359.426289	567.902579	-56.613292	331.100960	486.403875	-61.821925	388.061510	569.866700	-85.297006	315.167296	365.952857	-68.120282	327.025963	390.159657	-155.730719	242.747883	318.252229	-112.391590	533.622123	377.592111	-107.119226	455.515175	324.549581	-42.262299	180.922297	996.237450	-433.224514	255.296082	951.144361	-424.295656	278.458932	973.466253	-406.800405	298.634073	872.899997	-424.962496	353.489652	758.014935	-404.919405	342.890653	730.921779	-294.694198	73.965105	447.296397	-404.951809	108.993880	446.220519	-320.576987	12.278203	466.725749	-362.455753	135.637315	290.575645	-420.618937	273.941467	657.267002	-427.555772	233.879184	586.012563	-412.006104	160.005051	534.728099	-410.865910	251.302629	572.291969	-375.495895	218.686972	263.462114	-353.258345	-144.171692	939.249958	-230.056180	12.059761	79.653399	-427.548548	12.077007	79.702103	-29.302837	
